<svg width="20" height="20" fill="none" xmlns="http://www.w3.org/2000/svg"><g clip-path="url(#clip0_429_236)" fill="#000"><path d="M19.917 3.5c-.084-.083-.167-.167-.334-.167H3.75l-.417-2.166c0-.167-.25-.334-.416-.334h-2.5C.167.833 0 1 0 1.25c0 .25.167.417.417.417h2.166l2 10.166c.25 1.334 1.5 2.334 2.834 2.334H17c.25 0 .417-.167.417-.417 0-.25-.167-.417-.417-.417H7.5c-.667 0-1.333-.333-1.667-.917L18 10.75a.358.358 0 00.333-.333L20 3.75s0-.167-.083-.25zM17.583 10L5.417 11.583l-1.5-7.5H19L17.583 10zm-10.5 5A2.063 2.063 0 005 17.083c0 1.167.917 2.084 2.083 2.084a2.063 2.063 0 002.084-2.084A2.063 2.063 0 007.083 15zm0 3.333c-.666 0-1.25-.583-1.25-1.25 0-.666.584-1.25 1.25-1.25.667 0 1.25.584 1.25 1.25 0 .667-.583 1.25-1.25 1.25zM15.411 15a2.063 2.063 0 00-2.083 2.083c0 1.167.917 2.084 2.083 2.084a2.063 2.063 0 002.084-2.084A2.063 2.063 0 0015.41 15zm0 3.333c-.666 0-1.25-.583-1.25-1.25 0-.666.584-1.25 1.25-1.25.667 0 1.25.584 1.25 1.25 0 .667-.583 1.25-1.25 1.25z"/></g><defs><clipPath id="clip0_429_236"><path fill="#fff" d="M0 0h20v20H0z"/></clipPath></defs></svg>